<svg xmlns="http://www.w3.org/2000/svg" width="973" height="2871" viewBox="0 0 973 2871" font-family="'IBM Plex Mono', monospace">
<rect width="973" height="2871" fill="#f4f1ea"/>
<text x="12" y="30" font-size="20" font-weight="700" fill="#2e5c8b">RDF-prod</text>
<text x="12" y="48" font-size="10.5" fill="#7a766a" letter-spacing="1.5">THE WRETCHED OF THE EARTH · DATA PROVENANCE</text>
<line x1="12" y1="58" x2="961" y2="58" stroke="#4a7fa5" stroke-width="1.5"/>
<rect x="0" y="64" width="973" height="29" fill="#2e5c8b"/>
<text x="12" y="83" font-size="13" font-weight="600" fill="#ffffff">Subject</text>
<text x="318" y="83" font-size="13" font-weight="600" fill="#ffffff">Predicate</text>
<text x="616" y="83" font-size="13" font-weight="600" fill="#ffffff">Object</text>
<text x="12" y="108" font-size="12.5" font-weight="500" fill="#4a7fa5">item:theWretchedOfTheEarth</text>
<text x="318" y="108" font-size="12.5" font-weight="400" fill="#2a2620">a</text>
<text x="616" y="108" font-size="12.5" font-weight="400" fill="#2a2620">frbroo:F2_Expression</text>
<rect x="0" y="122" width="973" height="29" fill="#ece8df"/>
<text x="12" y="137" font-size="12.5" font-weight="500" fill="#4a7fa5">item:theWretchedOfTheEarth</text>
<text x="318" y="137" font-size="12.5" font-weight="400" fill="#2a2620">dcterms:contributor</text>
<text x="616" y="137" font-size="12.5" font-weight="400" fill="#2a2620">person:bhabha</text>
<text x="12" y="166" font-size="12.5" font-weight="500" fill="#4a7fa5">item:theWretchedOfTheEarth</text>
<text x="318" y="166" font-size="12.5" font-weight="400" fill="#2a2620">dcterms:contributor</text>
<text x="616" y="166" font-size="12.5" font-weight="400" fill="#2a2620">person:sartre</text>
<rect x="0" y="180" width="973" height="29" fill="#ece8df"/>
<text x="12" y="195" font-size="12.5" font-weight="500" fill="#4a7fa5">item:theWretchedOfTheEarth</text>
<text x="318" y="195" font-size="12.5" font-weight="400" fill="#2a2620">dcterms:issued</text>
<text x="616" y="195" font-size="12.5" font-weight="400" fill="#2a2620">&quot;1961&quot;</text>
<text x="12" y="224" font-size="12.5" font-weight="500" fill="#4a7fa5">item:theWretchedOfTheEarth</text>
<text x="318" y="224" font-size="12.5" font-weight="400" fill="#2a2620">dcterms:issued</text>
<text x="616" y="224" font-size="12.5" font-weight="400" fill="#2a2620">&quot;1963&quot;</text>
<rect x="0" y="238" width="973" height="29" fill="#ece8df"/>
<text x="12" y="253" font-size="12.5" font-weight="500" fill="#4a7fa5">item:theWretchedOfTheEarth</text>
<text x="318" y="253" font-size="12.5" font-weight="400" fill="#2a2620">dcterms:language</text>
<text x="616" y="253" font-size="12.5" font-weight="400" fill="#2a2620">&quot;en&quot;</text>
<text x="12" y="282" font-size="12.5" font-weight="500" fill="#4a7fa5">item:theWretchedOfTheEarth</text>
<text x="318" y="282" font-size="12.5" font-weight="400" fill="#2a2620">dcterms:language</text>
<text x="616" y="282" font-size="12.5" font-weight="400" fill="#2a2620">&quot;fr&quot;</text>
<rect x="0" y="296" width="973" height="29" fill="#ece8df"/>
<text x="12" y="311" font-size="12.5" font-weight="500" fill="#4a7fa5">item:theWretchedOfTheEarth</text>
<text x="318" y="311" font-size="12.5" font-weight="400" fill="#2a2620">dcterms:publisher</text>
<text x="616" y="311" font-size="12.5" font-weight="400" fill="#2a2620">org1:grovepress</text>
<text x="12" y="340" font-size="12.5" font-weight="500" fill="#4a7fa5">item:theWretchedOfTheEarth</text>
<text x="318" y="340" font-size="12.5" font-weight="400" fill="#2a2620">dcterms:publisher</text>
<text x="616" y="340" font-size="12.5" font-weight="400" fill="#2a2620">org1:maspero</text>
<rect x="0" y="354" width="973" height="29" fill="#ece8df"/>
<text x="12" y="369" font-size="12.5" font-weight="500" fill="#4a7fa5">item:theWretchedOfTheEarth</text>
<text x="318" y="369" font-size="12.5" font-weight="400" fill="#2a2620">crm:P102_has_title</text>
<text x="616" y="369" font-size="12.5" font-weight="400" fill="#2a2620">&quot;Les Damnés de la Terre&quot;@fr</text>
<text x="12" y="398" font-size="12.5" font-weight="500" fill="#4a7fa5">item:theWretchedOfTheEarth</text>
<text x="318" y="398" font-size="12.5" font-weight="400" fill="#2a2620">crm:P102_has_title</text>
<text x="616" y="398" font-size="12.5" font-weight="400" fill="#2a2620">&quot;The Wretched of the Earth&quot;@en</text>
<rect x="0" y="412" width="973" height="29" fill="#ece8df"/>
<text x="12" y="427" font-size="12.5" font-weight="500" fill="#4a7fa5">item:theWretchedOfTheEarth</text>
<text x="318" y="427" font-size="12.5" font-weight="400" fill="#2a2620">crm:P106_is_composed_of</text>
<text x="616" y="427" font-size="12.5" font-weight="400" fill="#2a2620">item:onViolence</text>
<text x="12" y="456" font-size="12.5" font-weight="500" fill="#4a7fa5">item:theWretchedOfTheEarth</text>
<text x="318" y="456" font-size="12.5" font-weight="400" fill="#2a2620">crm:P129_is_about</text>
<text x="616" y="456" font-size="12.5" font-weight="400" fill="#2a2620">concept:colonialism</text>
<rect x="0" y="470" width="973" height="29" fill="#ece8df"/>
<text x="12" y="485" font-size="12.5" font-weight="500" fill="#4a7fa5">item:theWretchedOfTheEarth</text>
<text x="318" y="485" font-size="12.5" font-weight="400" fill="#2a2620">crm:P129_is_about</text>
<text x="616" y="485" font-size="12.5" font-weight="400" fill="#2a2620">concept:decolonisation</text>
<text x="12" y="514" font-size="12.5" font-weight="500" fill="#4a7fa5">item:theWretchedOfTheEarth</text>
<text x="318" y="514" font-size="12.5" font-weight="400" fill="#2a2620">crm:P129_is_about</text>
<text x="616" y="514" font-size="12.5" font-weight="400" fill="#2a2620">concept:negritude</text>
<rect x="0" y="528" width="973" height="29" fill="#ece8df"/>
<text x="12" y="543" font-size="12.5" font-weight="500" fill="#4a7fa5">item:theWretchedOfTheEarth</text>
<text x="318" y="543" font-size="12.5" font-weight="400" fill="#2a2620">owl:sameAs</text>
<text x="616" y="543" font-size="12.5" font-weight="400" fill="#2a2620">https://www.wikidata.org/wiki/Q2741364</text>
<text x="12" y="572" font-size="12.5" font-weight="500" fill="#4a7fa5">item:theWretchedOfTheEarth</text>
<text x="318" y="572" font-size="12.5" font-weight="400" fill="#2a2620">owl:sameAs</text>
<text x="616" y="572" font-size="12.5" font-weight="400" fill="#2a2620">https://www.worldcat.org/oclc/31510925</text>
<rect x="0" y="586" width="973" height="29" fill="#ece8df"/>
<text x="12" y="601" font-size="12.5" font-weight="500" fill="#4a7fa5">item:onViolence</text>
<text x="318" y="601" font-size="12.5" font-weight="400" fill="#2a2620">a</text>
<text x="616" y="601" font-size="12.5" font-weight="400" fill="#2a2620">frbroo:F2_Expression</text>
<text x="12" y="630" font-size="12.5" font-weight="500" fill="#4a7fa5">item:onViolence</text>
<text x="318" y="630" font-size="12.5" font-weight="400" fill="#2a2620">crm:P102_has_title</text>
<text x="616" y="630" font-size="12.5" font-weight="400" fill="#2a2620">&quot;On Violence&quot;@en</text>
<rect x="0" y="644" width="973" height="29" fill="#ece8df"/>
<text x="12" y="659" font-size="12.5" font-weight="500" fill="#4a7fa5">item:onViolence</text>
<text x="318" y="659" font-size="12.5" font-weight="400" fill="#2a2620">crm:P129_is_about</text>
<text x="616" y="659" font-size="12.5" font-weight="400" fill="#2a2620">concept:colonialism</text>
<text x="12" y="688" font-size="12.5" font-weight="500" fill="#4a7fa5">item:onViolence</text>
<text x="318" y="688" font-size="12.5" font-weight="400" fill="#2a2620">crm:P129_is_about</text>
<text x="616" y="688" font-size="12.5" font-weight="400" fill="#2a2620">concept:decolonisation</text>
<rect x="0" y="702" width="973" height="29" fill="#ece8df"/>
<text x="12" y="717" font-size="12.5" font-weight="500" fill="#4a7fa5">creation:creationOfTheWretchedOfTheEarth</text>
<text x="318" y="717" font-size="12.5" font-weight="400" fill="#2a2620">a</text>
<text x="616" y="717" font-size="12.5" font-weight="400" fill="#2a2620">frbroo:F28_Expression_Creation</text>
<text x="12" y="746" font-size="12.5" font-weight="500" fill="#4a7fa5">creation:creationOfTheWretchedOfTheEarth</text>
<text x="318" y="746" font-size="12.5" font-weight="400" fill="#2a2620">frbroo:R17_created</text>
<text x="616" y="746" font-size="12.5" font-weight="400" fill="#2a2620">item:theWretchedOfTheEarth</text>
<rect x="0" y="760" width="973" height="29" fill="#ece8df"/>
<text x="12" y="775" font-size="12.5" font-weight="500" fill="#4a7fa5">creation:creationOfTheWretchedOfTheEarth</text>
<text x="318" y="775" font-size="12.5" font-weight="400" fill="#2a2620">crm:P14_carried_out_by</text>
<text x="616" y="775" font-size="12.5" font-weight="400" fill="#2a2620">person:fanon</text>
<text x="12" y="804" font-size="12.5" font-weight="500" fill="#4a7fa5">creation:creationOfTheWretchedOfTheEarth</text>
<text x="318" y="804" font-size="12.5" font-weight="400" fill="#2a2620">crm:P4_has_time-span</text>
<text x="616" y="804" font-size="12.5" font-weight="400" fill="#2a2620">time1:1961</text>
<rect x="0" y="818" width="973" height="29" fill="#ece8df"/>
<text x="12" y="833" font-size="12.5" font-weight="500" fill="#4a7fa5">person:fanon</text>
<text x="318" y="833" font-size="12.5" font-weight="400" fill="#2a2620">a</text>
<text x="616" y="833" font-size="12.5" font-weight="400" fill="#2a2620">crm:E21_Person</text>
<text x="12" y="862" font-size="12.5" font-weight="500" fill="#4a7fa5">person:fanon</text>
<text x="318" y="862" font-size="12.5" font-weight="400" fill="#2a2620">crm:P74_has_current_or_former_residenc</text>
<text x="318" y="880" font-size="12.5" font-weight="400" fill="#2a2620">e</text>
<text x="616" y="862" font-size="12.5" font-weight="400" fill="#2a2620">place:algeria</text>
<rect x="0" y="894" width="973" height="29" fill="#ece8df"/>
<text x="12" y="909" font-size="12.5" font-weight="500" fill="#4a7fa5">person:fanon</text>
<text x="318" y="909" font-size="12.5" font-weight="400" fill="#2a2620">rdfs:label</text>
<text x="616" y="909" font-size="12.5" font-weight="400" fill="#2a2620">&quot;Frantz Fanon&quot;@en</text>
<text x="12" y="938" font-size="12.5" font-weight="500" fill="#4a7fa5">person:fanon</text>
<text x="318" y="938" font-size="12.5" font-weight="400" fill="#2a2620">owl:sameAs</text>
<text x="616" y="938" font-size="12.5" font-weight="400" fill="#2a2620">https://viaf.org/viaf/22490</text>
<rect x="0" y="952" width="973" height="29" fill="#ece8df"/>
<text x="12" y="967" font-size="12.5" font-weight="500" fill="#4a7fa5">person:fanon</text>
<text x="318" y="967" font-size="12.5" font-weight="400" fill="#2a2620">owl:sameAs</text>
<text x="616" y="967" font-size="12.5" font-weight="400" fill="#2a2620">https://www.wikidata.org/wiki/Q193670</text>
<text x="12" y="996" font-size="12.5" font-weight="500" fill="#4a7fa5">person:sartre</text>
<text x="318" y="996" font-size="12.5" font-weight="400" fill="#2a2620">a</text>
<text x="616" y="996" font-size="12.5" font-weight="400" fill="#2a2620">crm:E21_Person</text>
<rect x="0" y="1010" width="973" height="29" fill="#ece8df"/>
<text x="12" y="1025" font-size="12.5" font-weight="500" fill="#4a7fa5">person:sartre</text>
<text x="318" y="1025" font-size="12.5" font-weight="400" fill="#2a2620">rdfs:label</text>
<text x="616" y="1025" font-size="12.5" font-weight="400" fill="#2a2620">&quot;Jean-Paul Sartre&quot;@en</text>
<text x="12" y="1054" font-size="12.5" font-weight="500" fill="#4a7fa5">person:sartre</text>
<text x="318" y="1054" font-size="12.5" font-weight="400" fill="#2a2620">owl:sameAs</text>
<text x="616" y="1054" font-size="12.5" font-weight="400" fill="#2a2620">https://viaf.org/viaf/76322562</text>
<rect x="0" y="1068" width="973" height="29" fill="#ece8df"/>
<text x="12" y="1083" font-size="12.5" font-weight="500" fill="#4a7fa5">person:sartre</text>
<text x="318" y="1083" font-size="12.5" font-weight="400" fill="#2a2620">owl:sameAs</text>
<text x="616" y="1083" font-size="12.5" font-weight="400" fill="#2a2620">https://www.wikidata.org/wiki/Q9364</text>
<text x="12" y="1112" font-size="12.5" font-weight="500" fill="#4a7fa5">person:bhabha</text>
<text x="318" y="1112" font-size="12.5" font-weight="400" fill="#2a2620">a</text>
<text x="616" y="1112" font-size="12.5" font-weight="400" fill="#2a2620">crm:E21_Person</text>
<rect x="0" y="1126" width="973" height="29" fill="#ece8df"/>
<text x="12" y="1141" font-size="12.5" font-weight="500" fill="#4a7fa5">person:bhabha</text>
<text x="318" y="1141" font-size="12.5" font-weight="400" fill="#2a2620">rdfs:label</text>
<text x="616" y="1141" font-size="12.5" font-weight="400" fill="#2a2620">&quot;Homi K. Bhabha&quot;@en</text>
<text x="12" y="1170" font-size="12.5" font-weight="500" fill="#4a7fa5">person:bhabha</text>
<text x="318" y="1170" font-size="12.5" font-weight="400" fill="#2a2620">owl:sameAs</text>
<text x="616" y="1170" font-size="12.5" font-weight="400" fill="#2a2620">https://www.wikidata.org/wiki/Q325741</text>
<rect x="0" y="1184" width="973" height="29" fill="#ece8df"/>
<text x="12" y="1199" font-size="12.5" font-weight="500" fill="#4a7fa5">person:cesaire</text>
<text x="318" y="1199" font-size="12.5" font-weight="400" fill="#2a2620">a</text>
<text x="616" y="1199" font-size="12.5" font-weight="400" fill="#2a2620">crm:E21_Person</text>
<text x="12" y="1228" font-size="12.5" font-weight="500" fill="#4a7fa5">person:cesaire</text>
<text x="318" y="1228" font-size="12.5" font-weight="400" fill="#2a2620">rdfs:label</text>
<text x="616" y="1228" font-size="12.5" font-weight="400" fill="#2a2620">&quot;Aimé Césaire&quot;@en</text>
<rect x="0" y="1242" width="973" height="29" fill="#ece8df"/>
<text x="12" y="1257" font-size="12.5" font-weight="500" fill="#4a7fa5">person:cesaire</text>
<text x="318" y="1257" font-size="12.5" font-weight="400" fill="#2a2620">owl:sameAs</text>
<text x="616" y="1257" font-size="12.5" font-weight="400" fill="#2a2620">https://viaf.org/viaf/4925246</text>
<text x="12" y="1286" font-size="12.5" font-weight="500" fill="#4a7fa5">person:cesaire</text>
<text x="318" y="1286" font-size="12.5" font-weight="400" fill="#2a2620">owl:sameAs</text>
<text x="616" y="1286" font-size="12.5" font-weight="400" fill="#2a2620">https://www.wikidata.org/wiki/Q223955</text>
<rect x="0" y="1300" width="973" height="29" fill="#ece8df"/>
<text x="12" y="1315" font-size="12.5" font-weight="500" fill="#4a7fa5">birth:fanon</text>
<text x="318" y="1315" font-size="12.5" font-weight="400" fill="#2a2620">a</text>
<text x="616" y="1315" font-size="12.5" font-weight="400" fill="#2a2620">crm:E67_Birth</text>
<text x="12" y="1344" font-size="12.5" font-weight="500" fill="#4a7fa5">birth:fanon</text>
<text x="318" y="1344" font-size="12.5" font-weight="400" fill="#2a2620">crm:P7_took_place_at</text>
<text x="616" y="1344" font-size="12.5" font-weight="400" fill="#2a2620">place:martinique</text>
<rect x="0" y="1358" width="973" height="29" fill="#ece8df"/>
<text x="12" y="1373" font-size="12.5" font-weight="500" fill="#4a7fa5">birth:fanon</text>
<text x="318" y="1373" font-size="12.5" font-weight="400" fill="#2a2620">crm:P98_brought_into_life</text>
<text x="616" y="1373" font-size="12.5" font-weight="400" fill="#2a2620">person:fanon</text>
<text x="12" y="1402" font-size="12.5" font-weight="500" fill="#4a7fa5">birth:cesaire</text>
<text x="318" y="1402" font-size="12.5" font-weight="400" fill="#2a2620">a</text>
<text x="616" y="1402" font-size="12.5" font-weight="400" fill="#2a2620">crm:E67_Birth</text>
<rect x="0" y="1416" width="973" height="29" fill="#ece8df"/>
<text x="12" y="1431" font-size="12.5" font-weight="500" fill="#4a7fa5">birth:cesaire</text>
<text x="318" y="1431" font-size="12.5" font-weight="400" fill="#2a2620">crm:P7_took_place_at</text>
<text x="616" y="1431" font-size="12.5" font-weight="400" fill="#2a2620">place:martinique</text>
<text x="12" y="1460" font-size="12.5" font-weight="500" fill="#4a7fa5">birth:cesaire</text>
<text x="318" y="1460" font-size="12.5" font-weight="400" fill="#2a2620">crm:P98_brought_into_life</text>
<text x="616" y="1460" font-size="12.5" font-weight="400" fill="#2a2620">person:cesaire</text>
<rect x="0" y="1474" width="973" height="29" fill="#ece8df"/>
<text x="12" y="1489" font-size="12.5" font-weight="500" fill="#4a7fa5">event:cesaireTeaching</text>
<text x="318" y="1489" font-size="12.5" font-weight="400" fill="#2a2620">a</text>
<text x="616" y="1489" font-size="12.5" font-weight="400" fill="#2a2620">crm:E7_Activity</text>
<text x="12" y="1518" font-size="12.5" font-weight="500" fill="#4a7fa5">event:cesaireTeaching</text>
<text x="318" y="1518" font-size="12.5" font-weight="400" fill="#2a2620">crm:P11_had_participant</text>
<text x="616" y="1518" font-size="12.5" font-weight="400" fill="#2a2620">person:fanon</text>
<rect x="0" y="1532" width="973" height="29" fill="#ece8df"/>
<text x="12" y="1547" font-size="12.5" font-weight="500" fill="#4a7fa5">event:cesaireTeaching</text>
<text x="318" y="1547" font-size="12.5" font-weight="400" fill="#2a2620">crm:P14_carried_out_by</text>
<text x="616" y="1547" font-size="12.5" font-weight="400" fill="#2a2620">person:cesaire</text>
<text x="12" y="1576" font-size="12.5" font-weight="500" fill="#4a7fa5">event:cesaireTeaching</text>
<text x="318" y="1576" font-size="12.5" font-weight="400" fill="#2a2620">rdfs:label</text>
<text x="616" y="1576" font-size="12.5" font-weight="400" fill="#2a2620">&quot;Aimé Césaire teaching Frantz Fanon&quot;@en</text>
<rect x="0" y="1590" width="973" height="29" fill="#ece8df"/>
<text x="12" y="1605" font-size="12.5" font-weight="500" fill="#4a7fa5">event:cesaire-founding-negritude</text>
<text x="318" y="1605" font-size="12.5" font-weight="400" fill="#2a2620">a</text>
<text x="616" y="1605" font-size="12.5" font-weight="400" fill="#2a2620">crm:E7_Activity</text>
<text x="12" y="1634" font-size="12.5" font-weight="500" fill="#4a7fa5">event:cesaire-founding-negritude</text>
<text x="318" y="1634" font-size="12.5" font-weight="400" fill="#2a2620">crm:P14_carried_out_by</text>
<text x="616" y="1634" font-size="12.5" font-weight="400" fill="#2a2620">person:cesaire</text>
<rect x="0" y="1648" width="973" height="29" fill="#ece8df"/>
<text x="12" y="1663" font-size="12.5" font-weight="500" fill="#4a7fa5">event:cesaire-founding-negritude</text>
<text x="318" y="1663" font-size="12.5" font-weight="400" fill="#2a2620">crm:P94_has_created</text>
<text x="616" y="1663" font-size="12.5" font-weight="400" fill="#2a2620">concept:negritude</text>
<text x="12" y="1692" font-size="12.5" font-weight="500" fill="#4a7fa5">event:cesaire-founding-negritude</text>
<text x="318" y="1692" font-size="12.5" font-weight="400" fill="#2a2620">rdfs:label</text>
<text x="616" y="1692" font-size="12.5" font-weight="400" fill="#2a2620">&quot;Founding of Négritude&quot;@en</text>
<rect x="0" y="1706" width="973" height="29" fill="#ece8df"/>
<text x="12" y="1721" font-size="12.5" font-weight="500" fill="#4a7fa5">org1:maspero</text>
<text x="318" y="1721" font-size="12.5" font-weight="400" fill="#2a2620">a</text>
<text x="616" y="1721" font-size="12.5" font-weight="400" fill="#2a2620">crm:E74_Group</text>
<text x="12" y="1750" font-size="12.5" font-weight="500" fill="#4a7fa5">org1:maspero</text>
<text x="318" y="1750" font-size="12.5" font-weight="400" fill="#2a2620">rdfs:label</text>
<text x="616" y="1750" font-size="12.5" font-weight="400" fill="#2a2620">&quot;François Maspero&quot;@en</text>
<rect x="0" y="1764" width="973" height="29" fill="#ece8df"/>
<text x="12" y="1779" font-size="12.5" font-weight="500" fill="#4a7fa5">org1:maspero</text>
<text x="318" y="1779" font-size="12.5" font-weight="400" fill="#2a2620">owl:sameAs</text>
<text x="616" y="1779" font-size="12.5" font-weight="400" fill="#2a2620">https://www.wikidata.org/wiki/Q3085338</text>
<text x="12" y="1808" font-size="12.5" font-weight="500" fill="#4a7fa5">org1:grovepress</text>
<text x="318" y="1808" font-size="12.5" font-weight="400" fill="#2a2620">a</text>
<text x="616" y="1808" font-size="12.5" font-weight="400" fill="#2a2620">crm:E74_Group</text>
<rect x="0" y="1822" width="973" height="29" fill="#ece8df"/>
<text x="12" y="1837" font-size="12.5" font-weight="500" fill="#4a7fa5">org1:grovepress</text>
<text x="318" y="1837" font-size="12.5" font-weight="400" fill="#2a2620">rdfs:label</text>
<text x="616" y="1837" font-size="12.5" font-weight="400" fill="#2a2620">&quot;Grove Press&quot;@en</text>
<text x="12" y="1866" font-size="12.5" font-weight="500" fill="#4a7fa5">org1:grovepress</text>
<text x="318" y="1866" font-size="12.5" font-weight="400" fill="#2a2620">owl:sameAs</text>
<text x="616" y="1866" font-size="12.5" font-weight="400" fill="#2a2620">https://www.wikidata.org/wiki/Q3777164</text>
<rect x="0" y="1880" width="973" height="29" fill="#ece8df"/>
<text x="12" y="1895" font-size="12.5" font-weight="500" fill="#4a7fa5">place:martinique</text>
<text x="318" y="1895" font-size="12.5" font-weight="400" fill="#2a2620">a</text>
<text x="616" y="1895" font-size="12.5" font-weight="400" fill="#2a2620">crm:E53_Place</text>
<text x="12" y="1924" font-size="12.5" font-weight="500" fill="#4a7fa5">place:martinique</text>
<text x="318" y="1924" font-size="12.5" font-weight="400" fill="#2a2620">crm:P168_place_is_defined_by</text>
<text x="616" y="1924" font-size="12.5" font-weight="400" fill="#2a2620">&quot;14.6415 -61.0242&quot;</text>
<rect x="0" y="1938" width="973" height="29" fill="#ece8df"/>
<text x="12" y="1953" font-size="12.5" font-weight="500" fill="#4a7fa5">place:martinique</text>
<text x="318" y="1953" font-size="12.5" font-weight="400" fill="#2a2620">rdfs:label</text>
<text x="616" y="1953" font-size="12.5" font-weight="400" fill="#2a2620">&quot;Martinique&quot;@en</text>
<text x="12" y="1982" font-size="12.5" font-weight="500" fill="#4a7fa5">place:martinique</text>
<text x="318" y="1982" font-size="12.5" font-weight="400" fill="#2a2620">owl:sameAs</text>
<text x="616" y="1982" font-size="12.5" font-weight="400" fill="#2a2620">https://www.geonames.org/3570311</text>
<rect x="0" y="1996" width="973" height="29" fill="#ece8df"/>
<text x="12" y="2011" font-size="12.5" font-weight="500" fill="#4a7fa5">place:martinique</text>
<text x="318" y="2011" font-size="12.5" font-weight="400" fill="#2a2620">owl:sameAs</text>
<text x="616" y="2011" font-size="12.5" font-weight="400" fill="#2a2620">https://www.wikidata.org/wiki/Q17054</text>
<text x="12" y="2040" font-size="12.5" font-weight="500" fill="#4a7fa5">place:algeria</text>
<text x="318" y="2040" font-size="12.5" font-weight="400" fill="#2a2620">a</text>
<text x="616" y="2040" font-size="12.5" font-weight="400" fill="#2a2620">crm:E53_Place</text>
<rect x="0" y="2054" width="973" height="29" fill="#ece8df"/>
<text x="12" y="2069" font-size="12.5" font-weight="500" fill="#4a7fa5">place:algeria</text>
<text x="318" y="2069" font-size="12.5" font-weight="400" fill="#2a2620">crm:P168_place_is_defined_by</text>
<text x="616" y="2069" font-size="12.5" font-weight="400" fill="#2a2620">&quot;28.0339 1.6596&quot;</text>
<text x="12" y="2098" font-size="12.5" font-weight="500" fill="#4a7fa5">place:algeria</text>
<text x="318" y="2098" font-size="12.5" font-weight="400" fill="#2a2620">rdfs:label</text>
<text x="616" y="2098" font-size="12.5" font-weight="400" fill="#2a2620">&quot;Algeria&quot;@en</text>
<rect x="0" y="2112" width="973" height="29" fill="#ece8df"/>
<text x="12" y="2127" font-size="12.5" font-weight="500" fill="#4a7fa5">place:algeria</text>
<text x="318" y="2127" font-size="12.5" font-weight="400" fill="#2a2620">owl:sameAs</text>
<text x="616" y="2127" font-size="12.5" font-weight="400" fill="#2a2620">https://www.geonames.org/2589581</text>
<text x="12" y="2156" font-size="12.5" font-weight="500" fill="#4a7fa5">place:algeria</text>
<text x="318" y="2156" font-size="12.5" font-weight="400" fill="#2a2620">owl:sameAs</text>
<text x="616" y="2156" font-size="12.5" font-weight="400" fill="#2a2620">https://www.wikidata.org/wiki/Q262</text>
<rect x="0" y="2170" width="973" height="29" fill="#ece8df"/>
<text x="12" y="2185" font-size="12.5" font-weight="500" fill="#4a7fa5">event:algerianrevolution</text>
<text x="318" y="2185" font-size="12.5" font-weight="400" fill="#2a2620">a</text>
<text x="616" y="2185" font-size="12.5" font-weight="400" fill="#2a2620">crm:E5_Event</text>
<text x="12" y="2214" font-size="12.5" font-weight="500" fill="#4a7fa5">event:algerianrevolution</text>
<text x="318" y="2214" font-size="12.5" font-weight="400" fill="#2a2620">crm:P11_had_participant</text>
<text x="616" y="2214" font-size="12.5" font-weight="400" fill="#2a2620">person:fanon</text>
<rect x="0" y="2228" width="973" height="29" fill="#ece8df"/>
<text x="12" y="2243" font-size="12.5" font-weight="500" fill="#4a7fa5">event:algerianrevolution</text>
<text x="318" y="2243" font-size="12.5" font-weight="400" fill="#2a2620">crm:P4_has_time-span</text>
<text x="616" y="2243" font-size="12.5" font-weight="400" fill="#2a2620">time1:1954-1962</text>
<text x="12" y="2272" font-size="12.5" font-weight="500" fill="#4a7fa5">event:algerianrevolution</text>
<text x="318" y="2272" font-size="12.5" font-weight="400" fill="#2a2620">crm:P7_took_place_at</text>
<text x="616" y="2272" font-size="12.5" font-weight="400" fill="#2a2620">place:algeria</text>
<rect x="0" y="2286" width="973" height="29" fill="#ece8df"/>
<text x="12" y="2301" font-size="12.5" font-weight="500" fill="#4a7fa5">event:algerianrevolution</text>
<text x="318" y="2301" font-size="12.5" font-weight="400" fill="#2a2620">rdfs:label</text>
<text x="616" y="2301" font-size="12.5" font-weight="400" fill="#2a2620">&quot;Algerian Revolution&quot;@en</text>
<text x="12" y="2330" font-size="12.5" font-weight="500" fill="#4a7fa5">event:algerianrevolution</text>
<text x="318" y="2330" font-size="12.5" font-weight="400" fill="#2a2620">owl:sameAs</text>
<text x="616" y="2330" font-size="12.5" font-weight="400" fill="#2a2620">https://www.wikidata.org/wiki/Q200790</text>
<rect x="0" y="2344" width="973" height="29" fill="#ece8df"/>
<text x="12" y="2359" font-size="12.5" font-weight="500" fill="#4a7fa5">event:secondcongress</text>
<text x="318" y="2359" font-size="12.5" font-weight="400" fill="#2a2620">a</text>
<text x="616" y="2359" font-size="12.5" font-weight="400" fill="#2a2620">crm:E5_Event</text>
<text x="12" y="2388" font-size="12.5" font-weight="500" fill="#4a7fa5">event:secondcongress</text>
<text x="318" y="2388" font-size="12.5" font-weight="400" fill="#2a2620">crm:P11_had_participant</text>
<text x="616" y="2388" font-size="12.5" font-weight="400" fill="#2a2620">person:cesaire</text>
<rect x="0" y="2402" width="973" height="29" fill="#ece8df"/>
<text x="12" y="2417" font-size="12.5" font-weight="500" fill="#4a7fa5">event:secondcongress</text>
<text x="318" y="2417" font-size="12.5" font-weight="400" fill="#2a2620">crm:P11_had_participant</text>
<text x="616" y="2417" font-size="12.5" font-weight="400" fill="#2a2620">person:fanon</text>
<text x="12" y="2446" font-size="12.5" font-weight="500" fill="#4a7fa5">event:secondcongress</text>
<text x="318" y="2446" font-size="12.5" font-weight="400" fill="#2a2620">crm:P4_has_time-span</text>
<text x="616" y="2446" font-size="12.5" font-weight="400" fill="#2a2620">time1:1959</text>
<rect x="0" y="2460" width="973" height="47" fill="#ece8df"/>
<text x="12" y="2475" font-size="12.5" font-weight="500" fill="#4a7fa5">event:secondcongress</text>
<text x="318" y="2475" font-size="12.5" font-weight="400" fill="#2a2620">rdfs:label</text>
<text x="616" y="2475" font-size="12.5" font-weight="400" fill="#2a2620">&quot;Second Congress of Black Writers and</text>
<text x="616" y="2493" font-size="12.5" font-weight="400" fill="#2a2620">Artists&quot;@en</text>
<text x="12" y="2522" font-size="12.5" font-weight="500" fill="#4a7fa5">event:secondcongress</text>
<text x="318" y="2522" font-size="12.5" font-weight="400" fill="#2a2620">owl:sameAs</text>
<text x="616" y="2522" font-size="12.5" font-weight="400" fill="#2a2620">https://www.wikidata.org/wiki/Q2993133</text>
<rect x="0" y="2536" width="973" height="29" fill="#ece8df"/>
<text x="12" y="2551" font-size="12.5" font-weight="500" fill="#4a7fa5">concept:colonialism</text>
<text x="318" y="2551" font-size="12.5" font-weight="400" fill="#2a2620">a</text>
<text x="616" y="2551" font-size="12.5" font-weight="400" fill="#2a2620">crm:E28_Conceptual_Object</text>
<text x="12" y="2580" font-size="12.5" font-weight="500" fill="#4a7fa5">concept:colonialism</text>
<text x="318" y="2580" font-size="12.5" font-weight="400" fill="#2a2620">rdfs:label</text>
<text x="616" y="2580" font-size="12.5" font-weight="400" fill="#2a2620">&quot;Colonialism&quot;@en</text>
<rect x="0" y="2594" width="973" height="29" fill="#ece8df"/>
<text x="12" y="2609" font-size="12.5" font-weight="500" fill="#4a7fa5">concept:colonialism</text>
<text x="318" y="2609" font-size="12.5" font-weight="400" fill="#2a2620">owl:sameAs</text>
<text x="616" y="2609" font-size="12.5" font-weight="400" fill="#2a2620">http://vocab.getty.edu/aat/300055142</text>
<text x="12" y="2638" font-size="12.5" font-weight="500" fill="#4a7fa5">concept:colonialism</text>
<text x="318" y="2638" font-size="12.5" font-weight="400" fill="#2a2620">owl:sameAs</text>
<text x="616" y="2638" font-size="12.5" font-weight="400" fill="#2a2620">https://www.wikidata.org/wiki/Q7167</text>
<rect x="0" y="2652" width="973" height="29" fill="#ece8df"/>
<text x="12" y="2667" font-size="12.5" font-weight="500" fill="#4a7fa5">concept:decolonisation</text>
<text x="318" y="2667" font-size="12.5" font-weight="400" fill="#2a2620">a</text>
<text x="616" y="2667" font-size="12.5" font-weight="400" fill="#2a2620">crm:E28_Conceptual_Object</text>
<text x="12" y="2696" font-size="12.5" font-weight="500" fill="#4a7fa5">concept:decolonisation</text>
<text x="318" y="2696" font-size="12.5" font-weight="400" fill="#2a2620">rdfs:label</text>
<text x="616" y="2696" font-size="12.5" font-weight="400" fill="#2a2620">&quot;Decolonisation&quot;@en</text>
<rect x="0" y="2710" width="973" height="29" fill="#ece8df"/>
<text x="12" y="2725" font-size="12.5" font-weight="500" fill="#4a7fa5">concept:decolonisation</text>
<text x="318" y="2725" font-size="12.5" font-weight="400" fill="#2a2620">owl:sameAs</text>
<text x="616" y="2725" font-size="12.5" font-weight="400" fill="#2a2620">http://vocab.getty.edu/aat/300375556</text>
<text x="12" y="2754" font-size="12.5" font-weight="500" fill="#4a7fa5">concept:decolonisation</text>
<text x="318" y="2754" font-size="12.5" font-weight="400" fill="#2a2620">owl:sameAs</text>
<text x="616" y="2754" font-size="12.5" font-weight="400" fill="#2a2620">https://www.wikidata.org/wiki/Q230533</text>
<rect x="0" y="2768" width="973" height="29" fill="#ece8df"/>
<text x="12" y="2783" font-size="12.5" font-weight="500" fill="#4a7fa5">concept:negritude</text>
<text x="318" y="2783" font-size="12.5" font-weight="400" fill="#2a2620">a</text>
<text x="616" y="2783" font-size="12.5" font-weight="400" fill="#2a2620">crm:E28_Conceptual_Object</text>
<text x="12" y="2812" font-size="12.5" font-weight="500" fill="#4a7fa5">concept:negritude</text>
<text x="318" y="2812" font-size="12.5" font-weight="400" fill="#2a2620">rdfs:label</text>
<text x="616" y="2812" font-size="12.5" font-weight="400" fill="#2a2620">&quot;Négritude&quot;@en</text>
<rect x="0" y="2826" width="973" height="29" fill="#ece8df"/>
<text x="12" y="2841" font-size="12.5" font-weight="500" fill="#4a7fa5">concept:negritude</text>
<text x="318" y="2841" font-size="12.5" font-weight="400" fill="#2a2620">owl:sameAs</text>
<text x="616" y="2841" font-size="12.5" font-weight="400" fill="#2a2620">https://www.wikidata.org/wiki/Q852544</text>
<line x1="306" y1="64" x2="306" y2="2855" stroke="#cdc7ba" stroke-width="0.6"/>
<line x1="604" y1="64" x2="604" y2="2855" stroke="#cdc7ba" stroke-width="0.6"/>
<line x1="0" y1="64" x2="973" y2="64" stroke="#cdc7ba" stroke-width="0.6"/>
<line x1="0" y1="93" x2="973" y2="93" stroke="#cdc7ba" stroke-width="0.6"/>
<line x1="0" y1="122" x2="973" y2="122" stroke="#cdc7ba" stroke-width="0.6"/>
<line x1="0" y1="151" x2="973" y2="151" stroke="#cdc7ba" stroke-width="0.6"/>
<line x1="0" y1="180" x2="973" y2="180" stroke="#cdc7ba" stroke-width="0.6"/>
<line x1="0" y1="209" x2="973" y2="209" stroke="#cdc7ba" stroke-width="0.6"/>
<line x1="0" y1="238" x2="973" y2="238" stroke="#cdc7ba" stroke-width="0.6"/>
<line x1="0" y1="267" x2="973" y2="267" stroke="#cdc7ba" stroke-width="0.6"/>
<line x1="0" y1="296" x2="973" y2="296" stroke="#cdc7ba" stroke-width="0.6"/>
<line x1="0" y1="325" x2="973" y2="325" stroke="#cdc7ba" stroke-width="0.6"/>
<line x1="0" y1="354" x2="973" y2="354" stroke="#cdc7ba" stroke-width="0.6"/>
<line x1="0" y1="383" x2="973" y2="383" stroke="#cdc7ba" stroke-width="0.6"/>
<line x1="0" y1="412" x2="973" y2="412" stroke="#cdc7ba" stroke-width="0.6"/>
<line x1="0" y1="441" x2="973" y2="441" stroke="#cdc7ba" stroke-width="0.6"/>
<line x1="0" y1="470" x2="973" y2="470" stroke="#cdc7ba" stroke-width="0.6"/>
<line x1="0" y1="499" x2="973" y2="499" stroke="#cdc7ba" stroke-width="0.6"/>
<line x1="0" y1="528" x2="973" y2="528" stroke="#cdc7ba" stroke-width="0.6"/>
<line x1="0" y1="557" x2="973" y2="557" stroke="#cdc7ba" stroke-width="0.6"/>
<line x1="0" y1="586" x2="973" y2="586" stroke="#cdc7ba" stroke-width="0.6"/>
<line x1="0" y1="615" x2="973" y2="615" stroke="#cdc7ba" stroke-width="0.6"/>
<line x1="0" y1="644" x2="973" y2="644" stroke="#cdc7ba" stroke-width="0.6"/>
<line x1="0" y1="673" x2="973" y2="673" stroke="#cdc7ba" stroke-width="0.6"/>
<line x1="0" y1="702" x2="973" y2="702" stroke="#cdc7ba" stroke-width="0.6"/>
<line x1="0" y1="731" x2="973" y2="731" stroke="#cdc7ba" stroke-width="0.6"/>
<line x1="0" y1="760" x2="973" y2="760" stroke="#cdc7ba" stroke-width="0.6"/>
<line x1="0" y1="789" x2="973" y2="789" stroke="#cdc7ba" stroke-width="0.6"/>
<line x1="0" y1="818" x2="973" y2="818" stroke="#cdc7ba" stroke-width="0.6"/>
<line x1="0" y1="847" x2="973" y2="847" stroke="#cdc7ba" stroke-width="0.6"/>
<line x1="0" y1="894" x2="973" y2="894" stroke="#cdc7ba" stroke-width="0.6"/>
<line x1="0" y1="923" x2="973" y2="923" stroke="#cdc7ba" stroke-width="0.6"/>
<line x1="0" y1="952" x2="973" y2="952" stroke="#cdc7ba" stroke-width="0.6"/>
<line x1="0" y1="981" x2="973" y2="981" stroke="#cdc7ba" stroke-width="0.6"/>
<line x1="0" y1="1010" x2="973" y2="1010" stroke="#cdc7ba" stroke-width="0.6"/>
<line x1="0" y1="1039" x2="973" y2="1039" stroke="#cdc7ba" stroke-width="0.6"/>
<line x1="0" y1="1068" x2="973" y2="1068" stroke="#cdc7ba" stroke-width="0.6"/>
<line x1="0" y1="1097" x2="973" y2="1097" stroke="#cdc7ba" stroke-width="0.6"/>
<line x1="0" y1="1126" x2="973" y2="1126" stroke="#cdc7ba" stroke-width="0.6"/>
<line x1="0" y1="1155" x2="973" y2="1155" stroke="#cdc7ba" stroke-width="0.6"/>
<line x1="0" y1="1184" x2="973" y2="1184" stroke="#cdc7ba" stroke-width="0.6"/>
<line x1="0" y1="1213" x2="973" y2="1213" stroke="#cdc7ba" stroke-width="0.6"/>
<line x1="0" y1="1242" x2="973" y2="1242" stroke="#cdc7ba" stroke-width="0.6"/>
<line x1="0" y1="1271" x2="973" y2="1271" stroke="#cdc7ba" stroke-width="0.6"/>
<line x1="0" y1="1300" x2="973" y2="1300" stroke="#cdc7ba" stroke-width="0.6"/>
<line x1="0" y1="1329" x2="973" y2="1329" stroke="#cdc7ba" stroke-width="0.6"/>
<line x1="0" y1="1358" x2="973" y2="1358" stroke="#cdc7ba" stroke-width="0.6"/>
<line x1="0" y1="1387" x2="973" y2="1387" stroke="#cdc7ba" stroke-width="0.6"/>
<line x1="0" y1="1416" x2="973" y2="1416" stroke="#cdc7ba" stroke-width="0.6"/>
<line x1="0" y1="1445" x2="973" y2="1445" stroke="#cdc7ba" stroke-width="0.6"/>
<line x1="0" y1="1474" x2="973" y2="1474" stroke="#cdc7ba" stroke-width="0.6"/>
<line x1="0" y1="1503" x2="973" y2="1503" stroke="#cdc7ba" stroke-width="0.6"/>
<line x1="0" y1="1532" x2="973" y2="1532" stroke="#cdc7ba" stroke-width="0.6"/>
<line x1="0" y1="1561" x2="973" y2="1561" stroke="#cdc7ba" stroke-width="0.6"/>
<line x1="0" y1="1590" x2="973" y2="1590" stroke="#cdc7ba" stroke-width="0.6"/>
<line x1="0" y1="1619" x2="973" y2="1619" stroke="#cdc7ba" stroke-width="0.6"/>
<line x1="0" y1="1648" x2="973" y2="1648" stroke="#cdc7ba" stroke-width="0.6"/>
<line x1="0" y1="1677" x2="973" y2="1677" stroke="#cdc7ba" stroke-width="0.6"/>
<line x1="0" y1="1706" x2="973" y2="1706" stroke="#cdc7ba" stroke-width="0.6"/>
<line x1="0" y1="1735" x2="973" y2="1735" stroke="#cdc7ba" stroke-width="0.6"/>
<line x1="0" y1="1764" x2="973" y2="1764" stroke="#cdc7ba" stroke-width="0.6"/>
<line x1="0" y1="1793" x2="973" y2="1793" stroke="#cdc7ba" stroke-width="0.6"/>
<line x1="0" y1="1822" x2="973" y2="1822" stroke="#cdc7ba" stroke-width="0.6"/>
<line x1="0" y1="1851" x2="973" y2="1851" stroke="#cdc7ba" stroke-width="0.6"/>
<line x1="0" y1="1880" x2="973" y2="1880" stroke="#cdc7ba" stroke-width="0.6"/>
<line x1="0" y1="1909" x2="973" y2="1909" stroke="#cdc7ba" stroke-width="0.6"/>
<line x1="0" y1="1938" x2="973" y2="1938" stroke="#cdc7ba" stroke-width="0.6"/>
<line x1="0" y1="1967" x2="973" y2="1967" stroke="#cdc7ba" stroke-width="0.6"/>
<line x1="0" y1="1996" x2="973" y2="1996" stroke="#cdc7ba" stroke-width="0.6"/>
<line x1="0" y1="2025" x2="973" y2="2025" stroke="#cdc7ba" stroke-width="0.6"/>
<line x1="0" y1="2054" x2="973" y2="2054" stroke="#cdc7ba" stroke-width="0.6"/>
<line x1="0" y1="2083" x2="973" y2="2083" stroke="#cdc7ba" stroke-width="0.6"/>
<line x1="0" y1="2112" x2="973" y2="2112" stroke="#cdc7ba" stroke-width="0.6"/>
<line x1="0" y1="2141" x2="973" y2="2141" stroke="#cdc7ba" stroke-width="0.6"/>
<line x1="0" y1="2170" x2="973" y2="2170" stroke="#cdc7ba" stroke-width="0.6"/>
<line x1="0" y1="2199" x2="973" y2="2199" stroke="#cdc7ba" stroke-width="0.6"/>
<line x1="0" y1="2228" x2="973" y2="2228" stroke="#cdc7ba" stroke-width="0.6"/>
<line x1="0" y1="2257" x2="973" y2="2257" stroke="#cdc7ba" stroke-width="0.6"/>
<line x1="0" y1="2286" x2="973" y2="2286" stroke="#cdc7ba" stroke-width="0.6"/>
<line x1="0" y1="2315" x2="973" y2="2315" stroke="#cdc7ba" stroke-width="0.6"/>
<line x1="0" y1="2344" x2="973" y2="2344" stroke="#cdc7ba" stroke-width="0.6"/>
<line x1="0" y1="2373" x2="973" y2="2373" stroke="#cdc7ba" stroke-width="0.6"/>
<line x1="0" y1="2402" x2="973" y2="2402" stroke="#cdc7ba" stroke-width="0.6"/>
<line x1="0" y1="2431" x2="973" y2="2431" stroke="#cdc7ba" stroke-width="0.6"/>
<line x1="0" y1="2460" x2="973" y2="2460" stroke="#cdc7ba" stroke-width="0.6"/>
<line x1="0" y1="2507" x2="973" y2="2507" stroke="#cdc7ba" stroke-width="0.6"/>
<line x1="0" y1="2536" x2="973" y2="2536" stroke="#cdc7ba" stroke-width="0.6"/>
<line x1="0" y1="2565" x2="973" y2="2565" stroke="#cdc7ba" stroke-width="0.6"/>
<line x1="0" y1="2594" x2="973" y2="2594" stroke="#cdc7ba" stroke-width="0.6"/>
<line x1="0" y1="2623" x2="973" y2="2623" stroke="#cdc7ba" stroke-width="0.6"/>
<line x1="0" y1="2652" x2="973" y2="2652" stroke="#cdc7ba" stroke-width="0.6"/>
<line x1="0" y1="2681" x2="973" y2="2681" stroke="#cdc7ba" stroke-width="0.6"/>
<line x1="0" y1="2710" x2="973" y2="2710" stroke="#cdc7ba" stroke-width="0.6"/>
<line x1="0" y1="2739" x2="973" y2="2739" stroke="#cdc7ba" stroke-width="0.6"/>
<line x1="0" y1="2768" x2="973" y2="2768" stroke="#cdc7ba" stroke-width="0.6"/>
<line x1="0" y1="2797" x2="973" y2="2797" stroke="#cdc7ba" stroke-width="0.6"/>
<line x1="0" y1="2826" x2="973" y2="2826" stroke="#cdc7ba" stroke-width="0.6"/>
<line x1="0" y1="2855" x2="973" y2="2855" stroke="#cdc7ba" stroke-width="0.6"/>
<rect x="0.5" y="64" width="972" height="2791" fill="none" stroke="#4a7fa5" stroke-width="1"/>
</svg>